<svg xmlns="http://www.w3.org/2000/svg" version="1.1" viewBox="-5.0 -10.0 110.0 135.0">
  <g fill="#FFFFFF" fill-rule="evenodd">
    <path d="m60.289 18.625c1.2227-1.2227 3.1992-1.2227 4.4219 0l16.664 16.664c1.2227 1.2227 1.2227 3.1992 0 4.4219l-49.551 49.555c-0.73047 0.72656-1.6562 1.2188-2.6641 1.4219l-17.148 3.4297c-3.6445 0.73047-6.8594-2.4844-6.1289-6.1289l3.4297-17.148c0.20312-1.0078 0.69531-1.9336 1.4258-2.6641zm-44.91 53.75-3.0625 15.309 15.309-3.0625 47.121-47.121-12.246-12.246z"/>
    <path d="m66.898 12.016c4.4727-4.4727 11.73-4.4727 16.203 0l4.8828 4.8828c4.4727 4.4766 4.4727 11.73 0 16.203l-6.6094 6.6094c-1.2188 1.2188-3.1992 1.2188-4.418 0l-16.668-16.668c-1.2188-1.2188-1.2188-3.1992 0-4.418zm11.785 4.4219c-2.0352-2.0352-5.332-2.0352-7.3672 0l-4.3984 4.3984 12.25 12.246 4.3984-4.3984c2.0312-2.0352 2.0312-5.332 0-7.3672z"/>
  </g>
</svg>
