<svg xmlns="http://www.w3.org/2000/svg" data-name="Layer 1" viewBox="0 0 48 60" x="0px" y="0px">
    <title>expand-black-pp-web2</title>
    <path d="M38,11H10a1,1,0,0,0,0,2h3V36a5,5,0,0,0,5,5H30a5,5,0,0,0,5-5V13h3a1,1,0,0,0,0-2ZM33,36a3,3,0,0,1-3,3H18a3,3,0,0,1-3-3V13H33Z" stroke="#ffffff" stroke-width="3"/>
    <path d="M20,9h8a1,1,0,0,0,0-2H20a1,1,0,0,0,0,2Z" stroke="#ffffff" stroke-width="2"/>
    <path d="M21,33a1,1,0,0,0,1-1V20a1,1,0,0,0-2,0V32A1,1,0,0,0,21,33Z" stroke="#ffffff" stroke-width="2"/>
    <path d="M27,33a1,1,0,0,0,1-1V20a1,1,0,0,0-2,0V32A1,1,0,0,0,27,33Z" stroke="#ffffff" stroke-width="2"/>
    <text x="0" y="63" fill="#FFFFFF" font-size="5px" font-weight="bold" font-family="'Helvetica Neue', Helvetica, Arial-Unicode, Arial, Sans-serif">Created by HideMaru</text>
    <text x="0" y="68" fill="#000000" font-size="5px" font-weight="bold" font-family="'Helvetica Neue', Helvetica, Arial-Unicode, Arial, Sans-serif">from the Noun Project</text>
</svg>
